<svg width="26" height="26" viewBox="0 0 26 26" fill="none" xmlns="http://www.w3.org/2000/svg">
<path d="M9.6525 22.3924C9.44667 22.3924 9.24084 22.3166 9.07834 22.1541C8.76417 21.8399 8.76417 21.3199 9.07834 21.0057L16.1417 13.9424C16.6617 13.4224 16.6617 12.5774 16.1417 12.0574L9.07834 4.99407C8.76417 4.6799 8.76417 4.1599 9.07834 3.84573C9.3925 3.53157 9.9125 3.53157 10.2267 3.84573L17.29 10.9091C17.8425 11.4616 18.1567 12.2091 18.1567 12.9999C18.1567 13.7907 17.8533 14.5382 17.29 15.0907L10.2267 22.1541C10.0642 22.3057 9.85834 22.3924 9.6525 22.3924Z" fill="#1A2630"/>
</svg>
