<svg width="16" height="18" viewBox="0 0 16 18" fill="none" xmlns="http://www.w3.org/2000/svg">
<path d="M7.99999 17.9667C6.76666 17.9667 5.52499 17.5001 4.55833 16.5751C2.09999 14.2084 -0.616672 10.4334 0.408328 5.94175C1.33333 1.86675 4.89166 0.041748 7.99999 0.041748C7.99999 0.041748 7.99999 0.041748 8.00833 0.041748C11.1167 0.041748 14.675 1.86675 15.6 5.95008C16.6167 10.4417 13.9 14.2084 11.4417 16.5751C10.475 17.5001 9.23333 17.9667 7.99999 17.9667ZM7.99999 1.29175C5.57499 1.29175 2.45833 2.58341 1.63333 6.21675C0.733328 10.1417 3.19999 13.5251 5.43333 15.6667C6.87499 17.0584 9.13333 17.0584 10.575 15.6667C12.8 13.5251 15.2667 10.1417 14.3833 6.21675C13.55 2.58341 10.425 1.29175 7.99999 1.29175Z" fill="#1A2630"/>
</svg>
