<svg width="20" height="20" viewBox="0 0 20 20" fill="none" xmlns="http://www.w3.org/2000/svg">
<path d="M14.1667 17.7084H5.83334C2.79167 17.7084 1.04167 15.9584 1.04167 12.9167V7.08342C1.04167 4.04175 2.79167 2.29175 5.83334 2.29175H14.1667C17.2083 2.29175 18.9583 4.04175 18.9583 7.08342V12.9167C18.9583 15.9584 17.2083 17.7084 14.1667 17.7084ZM5.83334 3.54175C3.45001 3.54175 2.29167 4.70008 2.29167 7.08342V12.9167C2.29167 15.3001 3.45001 16.4584 5.83334 16.4584H14.1667C16.55 16.4584 17.7083 15.3001 17.7083 12.9167V7.08342C17.7083 4.70008 16.55 3.54175 14.1667 3.54175H5.83334Z" fill="#1A2630"/>
<path d="M9.99981 10.725C9.29981 10.725 8.59148 10.5083 8.04981 10.0666L5.44148 7.98331C5.17481 7.76664 5.12481 7.37497 5.34148 7.10831C5.55815 6.84164 5.94982 6.79164 6.21648 7.00831L8.82481 9.09164C9.45814 9.59998 10.5331 9.59998 11.1665 9.09164L13.7748 7.00831C14.0415 6.79164 14.4415 6.83331 14.6498 7.10831C14.8665 7.37497 14.8248 7.77498 14.5498 7.98331L11.9415 10.0666C11.4081 10.5083 10.6998 10.725 9.99981 10.725Z" fill="#1A2630"/>
</svg>
